<?xml version="1.0" encoding="UTF-8" standalone="no"?>
<svg
   xmlns:dc="http://purl.org/dc/elements/1.1/"
   xmlns:cc="http://creativecommons.org/ns#"
   xmlns:rdf="http://www.w3.org/1999/02/22-rdf-syntax-ns#"
   xmlns:svg="http://www.w3.org/2000/svg"
   xmlns="http://www.w3.org/2000/svg"
   viewBox="0 0 574.66669 114.66667"
   height="114.66667"
   width="574.66669"
   xml:space="preserve"
   id="svg2"
   version="1.1"><metadata
     id="metadata8"><rdf:RDF><cc:Work
         rdf:about=""><dc:format>image/svg+xml</dc:format><dc:type
           rdf:resource="http://purl.org/dc/dcmitype/StillImage" /></cc:Work></rdf:RDF></metadata><defs
     id="defs6"><clipPath
       id="clipPath140"
       clipPathUnits="userSpaceOnUse"><path
         id="path138"
         d="m 436.18,179.945 c -158.442,58.762 -180.157,227.582 -180.168,411.567 12.531,1.269 25.418,2.703 38.34,4.203 68.484,7.949 115.976,30.519 141.828,46.453 25.847,-15.934 73.34,-38.504 141.824,-46.453 12.922,-1.5 25.808,-2.934 38.34,-4.203 C 616.332,407.527 594.617,238.707 436.18,179.945 Z" /></clipPath><clipPath
       id="clipPath150"
       clipPathUnits="userSpaceOnUse"><path
         id="path148"
         d="m 436.18,179.945 c -158.442,58.762 -180.157,227.582 -180.168,411.567 12.531,1.269 25.418,2.703 38.34,4.203 68.484,7.949 115.976,30.519 141.828,46.453 25.847,-15.934 73.34,-38.504 141.824,-46.453 12.922,-1.5 25.808,-2.934 38.34,-4.203 C 616.332,407.527 594.617,238.707 436.18,179.945 Z" /></clipPath><clipPath
       id="clipPath156"
       clipPathUnits="userSpaceOnUse"><path
         style="clip-rule:evenodd"
         id="path154"
         d="M 592.719,653.988 622.738,632.18 436.164,281.23 v 0 z" /></clipPath><clipPath
       id="clipPath166"
       clipPathUnits="userSpaceOnUse"><path
         id="path164"
         d="m 436.18,179.945 c -158.442,58.762 -180.157,227.582 -180.168,411.567 12.531,1.269 25.418,2.703 38.34,4.203 68.484,7.949 115.976,30.519 141.828,46.453 25.847,-15.934 73.34,-38.504 141.824,-46.453 12.922,-1.5 25.808,-2.934 38.34,-4.203 C 616.332,407.527 594.617,238.707 436.18,179.945 Z" /></clipPath><clipPath
       id="clipPath242"
       clipPathUnits="userSpaceOnUse"><path
         id="path240"
         d="m 436.18,179.945 c -158.442,58.762 -180.157,227.582 -180.168,411.567 12.531,1.269 25.418,2.703 38.34,4.203 68.484,7.949 115.976,30.519 141.828,46.453 25.847,-15.934 73.34,-38.504 141.824,-46.453 12.922,-1.5 25.808,-2.934 38.34,-4.203 C 616.332,407.527 594.617,238.707 436.18,179.945 Z" /></clipPath><clipPath
       id="clipPath248"
       clipPathUnits="userSpaceOnUse"><path
         style="clip-rule:evenodd"
         id="path246"
         d="M 279.57,653.988 249.551,632.18 436.125,281.23 v 0 z" /></clipPath><clipPath
       id="clipPath258"
       clipPathUnits="userSpaceOnUse"><path
         id="path256"
         d="m 436.18,179.945 c -158.442,58.762 -180.157,227.582 -180.168,411.567 12.531,1.269 25.418,2.703 38.34,4.203 68.484,7.949 115.976,30.519 141.828,46.453 25.847,-15.934 73.34,-38.504 141.824,-46.453 12.922,-1.5 25.808,-2.934 38.34,-4.203 C 616.332,407.527 594.617,238.707 436.18,179.945 Z" /></clipPath></defs><g
     transform="matrix(1.3333333,0,0,-1.3333333,0,114.66667)"
     id="g10"><g
       transform="scale(0.1)"
       id="g12"><path
         id="path14"
         style="fill:#1f4fa2;fill-opacity:1;fill-rule:evenodd;stroke:none"
         d="m 963.379,299.645 v 246.789 h 128.751 c 17.52,0 32.2,-4.563 44.04,-13.692 13.31,-10.609 19.98,-25.656 19.98,-45.14 0,-31.817 -14.92,-51.797 -44.77,-59.938 v -0.742 c 35.51,-5.672 53.28,-27.621 53.28,-65.863 0,-18.497 -7.41,-33.422 -22.2,-44.766 -14.8,-11.098 -34.04,-16.648 -57.73,-16.648 z m 52.911,210.523 v -65.117 h 49.21 c 10.85,0 19.86,3.457 27.01,10.363 7.15,7.148 10.72,15.781 10.72,25.898 0,9.864 -4.07,17.391 -12.2,22.567 -6.66,4.195 -14.93,6.289 -24.79,6.289 z m 0,-101.375 v -72.891 h 52.91 c 13.81,0 24.54,3.7 32.19,11.098 6.9,6.664 10.36,15.789 10.36,27.383 0,11.101 -4.57,19.98 -13.69,26.637 -7.15,5.183 -14.68,7.773 -22.58,7.773 h -59.19" /><path
         id="path16"
         style="fill:#1f4fa2;fill-opacity:1;fill-rule:evenodd;stroke:none"
         d="m 1201.65,299.645 v 183.886 h 51.8 V 299.645 Z m -0.74,214.968 v 34.039 h 52.91 v -34.039 h -52.91" /><path
         id="path18"
         style="fill:#1f4fa2;fill-opacity:1;fill-rule:nonzero;stroke:none"
         d="m 1302.29,299.645 h 51.7969 V 546.434 H 1302.29 Z" /><path
         id="path20"
         style="fill:#1f4fa2;fill-opacity:1;fill-rule:evenodd;stroke:none"
         d="m 1402.92,299.645 v 246.789 h 51.8 V 299.645 Z m 55.13,102.859 59.95,81.027 h 58.09 l -66.24,-81.027 76.96,-102.859 h -55.5 l -73.26,102.859" /><path
         id="path22"
         style="fill:#1f4fa2;fill-opacity:1;fill-rule:evenodd;stroke:none"
         d="m 1765.89,341.086 -4.81,-38.856 c -20.72,-4.679 -42.31,-7.023 -64.75,-7.023 -31.82,0 -56.74,8.875 -74.74,26.637 -18.01,17.758 -27.01,40.945 -27.01,69.554 0,29.114 7.89,52.297 23.68,69.563 16.77,18.008 40.7,27.012 71.78,27.012 26.64,0 47.85,-6.661 63.64,-19.981 17.27,-14.801 25.9,-36.383 25.9,-64.746 v -14.434 h -133.2 v -5.921 c 0,-16.774 5.67,-29.965 17.01,-39.586 10.61,-9.375 24.55,-14.063 41.82,-14.063 15.78,0 36.01,3.946 60.68,11.844 z m -119.51,72.519 h 83.99 c 0,28.614 -13.45,42.918 -40.33,42.918 -12.83,0 -23.06,-4.07 -30.71,-12.211 -7.65,-7.894 -11.96,-18.128 -12.95,-30.707" /><path
         id="path24"
         style="fill:#1f4fa2;fill-opacity:1;fill-rule:nonzero;stroke:none"
         d="m 1863.56,483.531 v -30.34 l 0.74,-0.738 c 11.84,23.68 34.78,35.52 68.82,35.52 48.35,0 72.53,-19.86 72.53,-59.571 V 299.645 h -51.81 v 116.917 c 0,9.126 -3.7,16.403 -11.1,21.833 -7.15,5.425 -16.03,8.136 -26.63,8.136 -18.02,0 -31.09,-5.551 -39.23,-16.648 -8.88,-11.84 -13.32,-31.571 -13.32,-59.203 v -71.035 h -51.79 v 183.886 h 51.79" /><path
         id="path26"
         style="fill:#1f4fa2;fill-opacity:1;fill-rule:nonzero;stroke:none"
         d="m 2112.2,483.531 h 46.62 V 447.27 h -46.62 v -81.766 c 0,-20.723 7.65,-31.082 22.94,-31.082 9.38,0 18.5,1.109 27.38,3.332 l -5.92,-37.004 c -12.83,-3.691 -26.64,-5.543 -41.44,-5.543 -18.5,0 -32.07,3.457 -40.7,10.355 -9.37,7.403 -14.05,19.856 -14.05,37.368 v 104.34 h -25.91 v 36.261 h 25.91 v 31.821 l 51.79,12.21 v -44.031" /><path
         id="path28"
         style="fill:#1f4fa2;fill-opacity:1;fill-rule:evenodd;stroke:none"
         d="m 2433.72,585.652 v 34.039 h 42.92 v -34.039 z m -66.22,0 v 34.039 h 42.91 v -34.039 z m -60.69,-39.218 h 55.87 v -150.59 c 0,-40.949 19.74,-61.422 59.2,-61.422 39.48,0 59.21,20.473 59.21,61.422 v 150.59 h 55.87 V 379.195 c 0,-27.875 -10.61,-49.093 -31.82,-63.64 -19.98,-13.567 -47.74,-20.348 -83.26,-20.348 -35.51,0 -63.27,6.781 -83.25,20.348 -21.21,14.547 -31.82,35.765 -31.82,63.64 v 167.239" /><path
         id="path30"
         style="fill:#1f4fa2;fill-opacity:1;fill-rule:nonzero;stroke:none"
         d="m 2635.01,483.531 v -30.34 l 0.74,-0.738 c 11.84,23.68 34.77,35.52 68.81,35.52 48.35,0 72.53,-19.86 72.53,-59.571 V 299.645 h -51.81 v 116.917 c 0,9.126 -3.69,16.403 -11.1,21.833 -7.15,5.425 -16.02,8.136 -26.63,8.136 -18.01,0 -31.09,-5.551 -39.23,-16.648 -8.87,-11.84 -13.31,-31.571 -13.31,-59.203 v -71.035 h -51.8 v 183.886 h 51.8" /><path
         id="path32"
         style="fill:#1f4fa2;fill-opacity:1;fill-rule:evenodd;stroke:none"
         d="m 2823.71,299.645 v 183.886 h 51.79 V 299.645 Z m -0.75,214.968 v 34.039 h 52.91 v -34.039 h -52.91" /><path
         id="path34"
         style="fill:#1f4fa2;fill-opacity:1;fill-rule:nonzero;stroke:none"
         d="m 2972.81,299.645 -73.26,183.886 h 53.65 l 47.73,-136.894 h 0.74 l 46.99,136.894 h 52.54 l -73.26,-183.886 h -55.13" /><path
         id="path36"
         style="fill:#1f4fa2;fill-opacity:1;fill-rule:evenodd;stroke:none"
         d="m 3284.72,341.086 -4.81,-38.856 c -20.72,-4.679 -42.3,-7.023 -64.75,-7.023 -31.82,0 -56.74,8.875 -74.74,26.637 -18.01,17.758 -27.01,40.945 -27.01,69.554 0,29.114 7.89,52.297 23.68,69.563 16.77,18.008 40.7,27.012 71.78,27.012 26.64,0 47.85,-6.661 63.64,-19.981 17.27,-14.801 25.9,-36.383 25.9,-64.746 v -14.434 h -133.2 v -5.921 c 0,-16.774 5.67,-29.965 17.02,-39.586 10.61,-9.375 24.54,-14.063 41.81,-14.063 15.78,0 36.01,3.946 60.68,11.844 z m -119.51,72.519 h 83.99 c 0,28.614 -13.45,42.918 -40.33,42.918 -12.83,0 -23.07,-4.07 -30.71,-12.211 -7.65,-7.894 -11.96,-18.128 -12.95,-30.707" /><path
         id="path38"
         style="fill:#1f4fa2;fill-opacity:1;fill-rule:nonzero;stroke:none"
         d="m 3379.8,483.531 v -23.676 l 0.74,-0.742 c 11.1,19.239 27.01,28.86 47.73,28.86 4.94,0 10.24,-0.618 15.91,-1.848 l 4.45,-42.551 c -8.39,1.977 -15.42,2.957 -21.09,2.957 -30.09,0 -45.14,-17.879 -45.14,-53.644 v -93.242 h -51.8 v 183.886 h 49.2" /><path
         id="path40"
         style="fill:#1f4fa2;fill-opacity:1;fill-rule:nonzero;stroke:none"
         d="m 3472.3,302.973 -5.92,39.957 c 22.69,-9.121 40.46,-13.688 53.28,-13.688 6.91,0 12.95,1.36 18.13,4.07 6.41,2.961 9.62,7.278 9.62,12.95 0,7.402 -6.53,16.281 -19.61,26.644 -22.93,18.742 -34.9,28.61 -35.89,29.598 -13.07,12.824 -19.61,25.898 -19.61,39.219 0,10.605 3.58,19.855 10.73,27.754 11.59,12.328 30.96,18.496 58.09,18.496 15.05,0 33.3,-1.973 54.76,-5.918 l 4.07,-37.743 c -15.54,6.415 -31.45,9.622 -47.73,9.622 -16.03,0 -24.05,-5.059 -24.05,-15.172 0,-6.164 6.54,-14.43 19.61,-24.789 19.99,-16.035 31.95,-26.149 35.9,-30.34 13.06,-13.817 19.6,-27.75 19.6,-41.809 0,-15.789 -8.01,-27.871 -24.05,-36.262 -13.07,-6.898 -28.85,-10.355 -47.35,-10.355 -17.28,0 -37.13,2.59 -59.58,7.766" /><path
         id="path42"
         style="fill:#1f4fa2;fill-opacity:1;fill-rule:evenodd;stroke:none"
         d="m 3641.76,299.645 v 183.886 h 51.8 V 299.645 Z m -0.74,214.968 v 34.039 h 52.91 v -34.039 h -52.91" /><path
         id="path44"
         style="fill:#1f4fa2;fill-opacity:1;fill-rule:nonzero;stroke:none"
         d="m 3802.34,483.531 h 46.61 V 447.27 h -46.61 v -81.766 c 0,-20.723 7.64,-31.082 22.94,-31.082 9.37,0 18.5,1.109 27.38,3.332 l -5.93,-37.004 c -12.82,-3.691 -26.64,-5.543 -41.43,-5.543 -18.5,0 -32.07,3.457 -40.7,10.355 -9.37,7.403 -14.06,19.856 -14.06,37.368 v 104.34 h -25.9 v 36.261 h 25.9 v 31.821 l 51.8,12.21 v -44.031" /><path
         id="path46"
         style="fill:#1f4fa2;fill-opacity:1;fill-rule:evenodd;stroke:none"
         d="m 4039.88,341.086 -4.82,-38.856 c -20.72,-4.679 -42.3,-7.023 -64.75,-7.023 -31.82,0 -56.73,8.875 -74.74,26.637 -18.01,17.758 -27.01,40.945 -27.01,69.554 0,29.114 7.9,52.297 23.68,69.563 16.78,18.008 40.7,27.012 71.78,27.012 26.64,0 47.86,-6.661 63.64,-19.981 17.27,-14.801 25.9,-36.383 25.9,-64.746 v -14.434 h -133.2 v -5.921 c 0,-16.774 5.68,-29.965 17.02,-39.586 10.61,-9.375 24.55,-14.063 41.81,-14.063 15.79,0 36.02,3.946 60.69,11.844 z m -119.52,72.519 h 83.99 c 0,28.614 -13.44,42.918 -40.33,42.918 -12.82,0 -23.06,-4.07 -30.7,-12.211 -7.66,-7.894 -11.97,-18.128 -12.96,-30.707" /><path
         id="path48"
         style="fill:#1f4fa2;fill-opacity:1;fill-rule:nonzero;stroke:none"
         d="m 4083.52,302.973 -5.91,39.957 c 22.69,-9.121 40.45,-13.688 53.28,-13.688 6.9,0 12.95,1.36 18.13,4.07 6.41,2.961 9.62,7.278 9.62,12.95 0,7.402 -6.54,16.281 -19.61,26.644 -22.94,18.742 -34.91,28.61 -35.89,29.598 -13.08,12.824 -19.62,25.898 -19.62,39.219 0,10.605 3.59,19.855 10.74,27.754 11.59,12.328 30.95,18.496 58.09,18.496 15.04,0 33.3,-1.973 54.76,-5.918 l 4.07,-37.743 c -15.54,6.415 -31.45,9.622 -47.73,9.622 -16.04,0 -24.05,-5.059 -24.05,-15.172 0,-6.164 6.53,-14.43 19.61,-24.789 19.98,-16.035 31.94,-26.149 35.89,-30.34 13.07,-13.817 19.61,-27.75 19.61,-41.809 0,-15.789 -8.02,-27.871 -24.05,-36.262 -13.07,-6.898 -28.86,-10.355 -47.36,-10.355 -17.27,0 -37.13,2.59 -59.58,7.766" /><path
         id="path50"
         style="fill:#1f4fa2;fill-opacity:1;fill-rule:evenodd;stroke:none"
         d="m 4252.99,299.645 v 183.886 h 51.8 V 299.645 Z m -0.74,214.968 v 34.039 h 52.9 v -34.039 h -52.9" /><path
         id="path52"
         style="fill:#ffffff;fill-opacity:1;fill-rule:nonzero;stroke:none"
         d="m 16.6836,427.41 c 0,231.699 187.8244,419.524 419.5234,419.524 231.699,0 419.527,-187.825 419.527,-419.524 C 855.734,195.711 667.906,7.88672 436.207,7.88672 204.508,7.88672 16.6836,195.711 16.6836,427.41" /><path
         id="path54"
         style="fill:none;stroke:#ed1c24;stroke-width:14.44219971;stroke-linecap:butt;stroke-linejoin:miter;stroke-miterlimit:3.8636899;stroke-dasharray:none;stroke-opacity:1"
         d="m 16.6836,427.41 c 0,231.699 187.8244,419.524 419.5234,419.524 231.699,0 419.527,-187.825 419.527,-419.524 C 855.734,195.711 667.906,7.88672 436.207,7.88672 204.508,7.88672 16.6836,195.711 16.6836,427.41 Z" /><path
         id="path56"
         style="fill:#1f4fa2;fill-opacity:1;fill-rule:evenodd;stroke:none"
         d="m 130.727,284.379 -11.426,-6.074 6.765,-12.723 c 1.211,-2.273 2.61,-3.887 4.2,-4.848 1.629,-0.968 3.531,-0.871 5.711,0.286 2.414,1.285 3.507,3.07 3.285,5.355 -0.321,1.902 -1.149,4.109 -2.481,6.617 z m -20,-10.633 -13.8129,-7.344 6.7659,-12.726 c 1.207,-2.27 2.453,-3.879 3.734,-4.821 2.344,-1.699 5.109,-1.699 8.297,-0.007 2.695,1.433 3.953,3.531 3.781,6.293 -0.097,1.543 -0.734,3.441 -1.906,5.707 z m 38.543,-15.848 c -1.36,-2.761 -3.571,-4.96 -6.641,-6.593 -3.16,-1.684 -6.129,-2.239 -8.895,-1.664 -1.554,0.316 -3.234,1.105 -5.046,2.363 0.445,-3.156 -0.02,-5.957 -1.391,-8.402 -1.367,-2.469 -3.535,-4.493 -6.512,-6.075 -3.066,-1.632 -6.234,-2.324 -9.492,-2.074 -2.141,0.125 -4.152,0.633 -6.039,1.524 -2.149,0.992 -4.063,2.5 -5.7423,4.523 -1.664,2 -3.1992,4.324 -4.6055,6.973 l -12.4843,23.476 51.8081,27.547 13.379,-25.164 c 3.282,-6.402 3.836,-11.879 1.661,-16.434" /><path
         id="path58"
         style="fill:#1f4fa2;fill-opacity:1;fill-rule:evenodd;stroke:none"
         d="m 161.469,233.203 -6.598,9.426 8.574,6.004 6.602,-9.422 z m -10.836,6.457 6.597,-9.422 -35.542,-24.89 -6.598,9.425 35.543,24.887" /><path
         id="path60"
         style="fill:#1f4fa2;fill-opacity:1;fill-rule:nonzero;stroke:none"
         d="m 138.258,183.871 -7.141,8.817 45.602,36.925 7.14,-8.816 -45.601,-36.926" /><path
         id="path62"
         style="fill:#1f4fa2;fill-opacity:1;fill-rule:nonzero;stroke:none"
         d="m 190.93,211.711 7.746,-8.016 -22.738,-21.957 21.558,1.172 9.762,-10.109 -22.477,-0.621 -8.179,-29.809 -9.512,9.848 6.125,20.363 -6.785,-0.023 -9.821,-9.485 -7.742,8.016 42.063,40.621" /><path
         id="path64"
         style="fill:#1f4fa2;fill-opacity:1;fill-rule:evenodd;stroke:none"
         d="m 217.609,152.137 c -2.132,-0.453 -4.199,-1.692 -6.187,-3.715 l 14.086,-10.613 c 1.652,2.507 2.289,4.871 1.902,7.089 -0.351,2.227 -1.492,4.063 -3.418,5.52 -2.101,1.582 -4.226,2.152 -6.383,1.719 z m 18.579,-1.739 c 1.496,-2.824 2.117,-5.968 1.867,-9.433 -0.196,-3.078 -1.114,-6.125 -2.754,-9.141 -0.965,-1.765 -2.594,-4.125 -4.887,-7.082 l -23.719,17.871 c -2.492,-3.57 -3.238,-6.828 -2.234,-9.777 0.594,-1.813 1.773,-3.379 3.531,-4.707 1.867,-1.406 3.781,-2.016 5.746,-1.836 1.067,0.094 2.227,0.465 3.481,1.113 l 9.25,-6.968 c -1.781,-1.883 -4.426,-3.165 -7.93,-3.844 -5.508,-1.133 -10.93,0.308 -16.269,4.336 -4.411,3.32 -7.231,7.672 -8.458,13.05 -1.23,5.379 0.567,11.27 5.391,17.672 4.52,5.996 9.5,9.453 14.942,10.371 5.464,0.899 10.621,-0.48 15.476,-4.136 2.883,-2.172 5.07,-4.668 6.567,-7.489" /><path
         id="path66"
         style="fill:#1f4fa2;fill-opacity:1;fill-rule:nonzero;stroke:none"
         d="m 283.832,119.605 c 1.375,-3.433 0.742,-7.527 -1.894,-12.285 l -14.165,-25.5544 -10.168,5.6328 12.797,23.0856 c 1.106,1.996 1.688,3.676 1.746,5.039 0.106,2.489 -1.21,4.493 -3.949,6.012 -3.367,1.867 -6.469,1.719 -9.301,-0.441 -1.488,-1.149 -2.882,-2.895 -4.179,-5.239 l -11.387,-20.5425 -9.887,5.4805 20.996,37.883 9.575,-5.309 -3.071,-5.535 c 2.36,1.242 4.344,1.977 5.957,2.203 2.891,0.403 5.903,-0.265 9.039,-2.004 3.922,-2.176 6.551,-4.984 7.891,-8.426" /><path
         id="path68"
         style="fill:#1f4fa2;fill-opacity:1;fill-rule:nonzero;stroke:none"
         d="m 293.742,108.633 3.028,7.492 5.609,-2.266 4.535,11.219 10.406,-4.203 -4.531,-11.219 6.531,-2.64 -3.027,-7.4926 -6.531,2.6366 -8.59,-21.2577 c -0.668,-1.6484 -0.875,-2.7695 -0.625,-3.3554 0.258,-0.5625 1.457,-1.2735 3.598,-2.1407 0.32,-0.1289 0.652,-0.2617 1,-0.4023 0.378,-0.125 0.742,-0.2461 1.097,-0.3594 l -3.176,-7.8593 -5.058,1.8281 c -5.039,1.8359 -8.086,4.0664 -9.141,6.6992 -0.695,1.6836 -0.535,3.7773 0.481,6.2891 l 10.004,24.7654 -5.61,2.266" /><path
         id="path70"
         style="fill:#1f4fa2;fill-opacity:1;fill-rule:evenodd;stroke:none"
         d="m 355.98,111.312 12.305,-1.949 -5.64,-35.6208 c -0.633,-3.9844 -0.622,-6.9688 0.031,-8.9531 0.953,-3.4844 3.894,-5.6133 8.824,-6.3946 4.898,-0.7773 8.34,0.3438 10.324,3.3633 1.235,1.6836 2.168,4.5195 2.797,8.5039 l 5.645,35.6213 12.304,-1.949 -5.64,-35.6215 c -0.977,-6.1602 -2.696,-10.8086 -5.149,-13.9375 -4.562,-5.7266 -11.863,-7.793 -21.902,-6.2031 -10.039,1.5898 -16.356,5.8164 -18.949,12.6758 -1.371,3.7343 -1.567,8.6835 -0.594,14.8437 z m 28.356,10.583 10.262,-1.625 -1.477,-9.321 -10.262,1.625 z m -15.727,2.492 10.262,-1.629 -1.476,-9.317 -10.262,1.625 1.476,9.321" /><path
         id="path72"
         style="fill:#1f4fa2;fill-opacity:1;fill-rule:nonzero;stroke:none"
         d="m 448.988,84.3164 c 2.828,-2.3867 4.192,-6.2969 4.098,-11.7383 l -0.512,-29.2109 -11.621,0.1992 0.461,26.3906 c 0.039,2.2813 -0.234,4.0391 -0.824,5.2696 -1.074,2.25 -3.18,3.3984 -6.309,3.4531 -3.847,0.0703 -6.515,-1.5156 -8.008,-4.7539 -0.773,-1.7149 -1.183,-3.9102 -1.23,-6.5899 l -0.41,-23.4804 -11.301,0.1953 0.754,43.3047 10.945,-0.1914 -0.109,-6.3282 c 1.496,2.2032 2.906,3.7813 4.223,4.7422 2.367,1.711 5.339,2.5352 8.921,2.4727 4.485,-0.0781 8.125,-1.3242 10.922,-3.7344" /><path
         id="path74"
         style="fill:#1f4fa2;fill-opacity:1;fill-rule:evenodd;stroke:none"
         d="m 477.77,95.125 -11.418,-1.4023 -1.278,10.3943 11.418,1.403 z m -10.79,-6.5391 11.418,1.4024 5.29,-43.0664 -11.418,-1.4024 -5.29,43.0664" /><path
         id="path76"
         style="fill:#1f4fa2;fill-opacity:1;fill-rule:nonzero;stroke:none"
         d="m 517.465,96.6836 11.914,2.5352 -6.281,-45.6954 -11.719,-2.4922 -24.246,39.2071 12.457,2.6484 15.496,-29.4297 2.379,33.2266" /><path
         id="path78"
         style="fill:#1f4fa2;fill-opacity:1;fill-rule:evenodd;stroke:none"
         d="m 552.887,96.1914 c -0.75,-2.0469 -0.793,-4.4531 -0.133,-7.2109 l 16.465,6.3203 c -1.25,2.7304 -2.918,4.5195 -5.004,5.3712 -2.074,0.879 -4.235,0.887 -6.492,0.023 -2.453,-0.9411 -4.067,-2.445 -4.836,-4.5036 z m 11.316,14.8356 c 3.188,-0.226 6.184,-1.367 8.988,-3.414 2.508,-1.797 4.606,-4.191 6.293,-7.179 0.985,-1.7543 2.125,-4.3871 3.418,-7.8988 L 555.176,81.8945 c 1.711,-4.0078 4.078,-6.3672 7.109,-7.0781 1.852,-0.457 3.805,-0.2891 5.863,0.5 2.18,0.8359 3.715,2.1367 4.602,3.8984 0.484,0.9532 0.785,2.1368 0.898,3.543 l 10.817,4.1524 c 0.648,-2.5079 0.336,-5.4297 -0.945,-8.7618 -1.958,-5.2734 -6.055,-9.1054 -12.301,-11.5039 -5.153,-1.9765 -10.336,-2.0625 -15.551,-0.2539 -5.211,1.8086 -9.254,6.4532 -12.129,13.9336 -2.691,7.0117 -2.98,13.0703 -0.875,18.1719 2.133,5.1089 6.031,8.7539 11.707,10.9299 3.371,1.297 6.645,1.828 9.832,1.601" /><path
         id="path80"
         style="fill:#1f4fa2;fill-opacity:1;fill-rule:nonzero;stroke:none"
         d="m 603.863,131.328 c 0.145,0.07 0.446,0.203 0.91,0.399 l 5.098,-10.446 c -0.68,-0.242 -1.273,-0.476 -1.789,-0.695 -0.512,-0.223 -0.922,-0.41 -1.234,-0.559 -4.102,-2 -6.207,-4.679 -6.309,-8.039 -0.055,-1.886 0.68,-4.39 2.203,-7.515 l 9.094,-18.641 -10.27,-5.0078 -19.019,38.9998 9.73,4.746 3.317,-6.8 c 0.304,3.367 0.808,5.812 1.515,7.339 1.125,2.528 3.219,4.536 6.27,6.028 0.191,0.09 0.351,0.156 0.484,0.191" /><path
         id="path82"
         style="fill:#1f4fa2;fill-opacity:1;fill-rule:nonzero;stroke:none"
         d="m 636.582,115.895 c 1.301,-1.563 2.516,-2.481 3.645,-2.762 2.003,-0.5 4.597,0.281 7.781,2.347 1.867,1.215 3.168,2.454 3.898,3.719 0.75,1.278 0.762,2.473 0.043,3.586 -0.695,1.07 -1.668,1.594 -2.918,1.57 -1.254,-0.019 -5.179,-1.21 -11.781,-3.566 -4.781,-1.652 -8.52,-2.258 -11.207,-1.82 -2.676,0.414 -4.938,2.047 -6.789,4.898 -2.18,3.36 -2.738,7.094 -1.676,11.203 1.074,4.145 4.004,7.77 8.789,10.879 4.539,2.949 8.828,4.438 12.863,4.461 4.04,0.063 7.719,-1.996 11.032,-6.172 l -9.516,-6.179 c -0.926,1.136 -1.902,1.882 -2.918,2.234 -1.887,0.609 -4.086,0.098 -6.601,-1.535 -2.071,-1.344 -3.34,-2.629 -3.813,-3.852 -0.445,-1.207 -0.391,-2.246 0.176,-3.113 0.707,-1.094 1.687,-1.578 2.941,-1.461 1.266,0.094 5.141,1.363 11.625,3.801 4.364,1.566 8.074,2.062 11.137,1.488 3.059,-0.609 5.473,-2.285 7.25,-5.023 2.344,-3.606 2.91,-7.43 1.707,-11.469 -1.199,-4.004 -4.602,-7.828 -10.207,-11.469 -5.723,-3.715 -10.731,-5.262 -15.031,-4.633 -4.289,0.661 -7.649,2.86 -10.078,6.602 l 9.648,6.266" /><path
         id="path84"
         style="fill:#1f4fa2;fill-opacity:1;fill-rule:evenodd;stroke:none"
         d="m 657.863,175.059 -8.812,-7.399 -6.731,8.024 8.813,7.394 z m -5.484,-11.36 8.812,7.395 27.891,-33.239 -8.812,-7.394 -27.891,33.238" /><path
         id="path86"
         style="fill:#1f4fa2;fill-opacity:1;fill-rule:nonzero;stroke:none"
         d="m 673.203,170.227 -5.613,5.812 4.351,4.203 -8.406,8.703 8.074,7.797 8.411,-8.703 5.066,4.895 5.613,-5.813 -5.066,-4.894 15.926,-16.497 c 1.238,-1.277 2.171,-1.921 2.808,-1.933 0.621,0.008 1.762,0.812 3.422,2.418 0.25,0.238 0.508,0.488 0.773,0.746 0.27,0.297 0.528,0.582 0.778,0.859 l 5.887,-6.097 -3.727,-3.879 c -3.727,-3.856 -7.008,-5.735 -9.84,-5.625 -1.816,0.047 -3.668,1.047 -5.547,2.996 l -18.558,19.215 -4.352,-4.203" /><path
         id="path88"
         style="fill:#1f4fa2;fill-opacity:1;fill-rule:evenodd;stroke:none"
         d="m 706.941,202.293 c 0.379,-2.148 1.543,-4.254 3.493,-6.313 l 11.097,13.704 c -2.445,1.742 -4.785,2.461 -7.015,2.152 -2.239,-0.277 -4.114,-1.352 -5.633,-3.227 -1.656,-2.043 -2.301,-4.148 -1.942,-6.316 z m 2.387,18.508 c 2.871,1.394 6.035,1.906 9.488,1.535 3.071,-0.305 6.082,-1.324 9.039,-3.07 1.731,-1.028 4.036,-2.739 6.911,-5.133 l -18.692,-23.078 c 3.485,-2.617 6.715,-3.477 9.699,-2.578 1.829,0.531 3.438,1.656 4.825,3.367 1.468,1.816 2.148,3.707 2.035,5.676 -0.055,1.07 -0.387,2.242 -0.992,3.519 l 7.289,9.004 c 1.816,-1.848 3.008,-4.535 3.566,-8.063 0.942,-5.542 -0.695,-10.91 -4.902,-16.109 -3.473,-4.289 -7.922,-6.953 -13.34,-7.996 -5.418,-1.043 -11.242,0.961 -17.473,6.004 -5.836,4.726 -9.117,9.824 -9.843,15.297 -0.708,5.492 0.847,10.597 4.671,15.32 2.274,2.805 4.844,4.906 7.719,6.305" /><path
         id="path90"
         style="fill:#1f4fa2;fill-opacity:1;fill-rule:nonzero;stroke:none"
         d="m 751.535,230.941 c 1.852,-0.836 3.348,-1.129 4.485,-0.882 2.019,0.425 4.007,2.265 5.96,5.515 1.149,1.914 1.774,3.594 1.875,5.055 0.118,1.476 -0.394,2.559 -1.535,3.242 -1.09,0.656 -2.195,0.699 -3.308,0.133 -1.117,-0.57 -4.125,-3.359 -9.024,-8.371 -3.578,-3.582 -6.668,-5.766 -9.277,-6.551 -2.586,-0.801 -5.332,-0.324 -8.246,1.426 -3.434,2.066 -5.574,5.176 -6.418,9.336 -0.852,4.199 0.191,8.742 3.129,13.633 2.789,4.64 5.988,7.855 9.605,9.648 3.606,1.828 7.813,1.59 12.621,-0.711 l -5.843,-9.726 c -1.332,0.617 -2.532,0.859 -3.602,0.726 -1.961,-0.277 -3.715,-1.699 -5.262,-4.269 -1.269,-2.118 -1.847,-3.829 -1.734,-5.133 0.125,-1.285 0.633,-2.192 1.519,-2.727 1.114,-0.668 2.208,-0.676 3.286,-0.023 1.097,0.644 4.023,3.48 8.781,8.515 3.234,3.321 6.355,5.395 9.359,6.223 3.016,0.789 5.918,0.344 8.715,-1.34 3.688,-2.215 5.875,-5.402 6.563,-9.562 0.679,-4.121 -0.704,-9.051 -4.145,-14.782 -3.516,-5.847 -7.34,-9.433 -11.477,-10.754 -4.148,-1.285 -8.132,-0.781 -11.953,1.516 l 5.926,9.863" /><path
         id="path92"
         style="fill:#1f4fa2;fill-opacity:1;fill-rule:evenodd;stroke:none"
         d="m 745.172,292.84 -4.863,-10.426 -9.489,4.426 4.864,10.426 z M 745,280.227 l 4.863,10.425 39.325,-18.336 -4.864,-10.425 L 745,280.227" /><path
         id="path94"
         style="fill:none;stroke:#ed1c24;stroke-width:9.62847042;stroke-linecap:butt;stroke-linejoin:miter;stroke-miterlimit:3.8636899;stroke-dasharray:none;stroke-opacity:1"
         d="m 138.867,427.41 c 0,164.219 133.121,297.34 297.34,297.34 164.219,0 297.344,-133.121 297.344,-297.34 0,-164.219 -133.125,-297.34 -297.344,-297.34 -164.219,0 -297.34,133.121 -297.34,297.34 z" /><path
         id="path96"
         style="fill:#1f4fa2;fill-opacity:1;fill-rule:evenodd;stroke:none"
         d="m 158.531,602.836 -7.332,-9.731 -46.863,35.313 7.332,9.73 z m -66.4529,35.969 6.2266,8.265 7.5353,-5.675 -6.2306,-8.266 -7.5313,5.676" /><path
         id="path98"
         style="fill:#1f4fa2;fill-opacity:1;fill-rule:nonzero;stroke:none"
         d="m 152.73,667.762 c 2.11,1.129 4.348,1.636 6.719,1.527 2.008,-0.09 3.77,-0.574 5.274,-1.453 1.488,-0.863 3.734,-2.516 6.75,-4.949 l 19.797,-16.035 -7.29,-9.004 -20.511,16.609 c -1.813,1.469 -3.528,2.348 -5.141,2.629 -2.223,0.465 -4.242,-0.426 -6.062,-2.672 -1.887,-2.332 -2.539,-4.742 -1.957,-7.226 0.578,-2.45 2.312,-4.844 5.199,-7.18 l 18.25,-14.781 -7.113,-8.789 -45.446,36.804 7.113,8.785 16.122,-13.05 c -0.926,2.863 -1.09,5.437 -0.504,7.73 0.59,2.324 1.632,4.414 3.132,6.273 1.688,2.082 3.579,3.676 5.668,4.782" /><path
         id="path100"
         style="fill:#1f4fa2;fill-opacity:1;fill-rule:nonzero;stroke:none"
         d="m 197.305,672.285 c 1.554,-1.312 2.91,-2.008 4.07,-2.086 2.059,-0.148 4.477,1.071 7.254,3.66 1.629,1.52 2.695,2.965 3.191,4.34 0.52,1.387 0.325,2.571 -0.578,3.543 -0.871,0.93 -1.918,1.274 -3.148,1.039 -1.231,-0.242 -4.887,-2.097 -10.981,-5.562 -4.422,-2.457 -7.996,-3.699 -10.722,-3.739 -2.703,-0.054 -5.215,1.161 -7.536,3.645 -2.73,2.93 -3.929,6.512 -3.593,10.742 0.336,4.27 2.593,8.352 6.765,12.242 3.961,3.692 7.922,5.903 11.891,6.625 3.969,0.766 7.949,-0.625 11.937,-4.16 l -8.296,-7.738 c -1.114,0.957 -2.2,1.523 -3.266,1.691 -1.961,0.274 -4.035,-0.613 -6.231,-2.656 -1.808,-1.683 -2.832,-3.168 -3.085,-4.453 -0.231,-1.27 0.003,-2.281 0.711,-3.039 0.886,-0.953 1.937,-1.262 3.152,-0.926 1.23,0.313 4.828,2.235 10.789,5.762 4.023,2.297 7.594,3.433 10.711,3.398 3.113,-0.07 5.785,-1.301 8.008,-3.687 2.933,-3.145 4.156,-6.813 3.675,-11 -0.484,-4.153 -3.171,-8.508 -8.062,-13.067 -4.988,-4.652 -9.656,-7.043 -13.996,-7.171 -4.34,-0.094 -8.031,1.488 -11.074,4.75 l 8.414,7.847" /><path
         id="path102"
         style="fill:#1f4fa2;fill-opacity:1;fill-rule:evenodd;stroke:none"
         d="m 243.508,718.598 c -0.324,-0.782 -0.711,-1.504 -1.153,-2.168 -0.433,-0.629 -1.105,-1.407 -2.011,-2.332 l -1.813,-1.852 c -1.711,-1.719 -2.816,-3.125 -3.316,-4.219 -0.84,-1.851 -0.637,-3.672 0.609,-5.453 1.114,-1.586 2.352,-2.433 3.727,-2.543 1.379,-0.07 2.699,0.336 3.957,1.219 2,1.398 3.426,3.273 4.281,5.617 0.871,2.363 0.254,5.121 -1.855,8.274 z m -8.676,0.386 c 1.566,1.422 2.606,2.551 3.113,3.395 0.934,1.496 0.977,2.84 0.141,4.035 -1.02,1.457 -2.231,2.098 -3.633,1.93 -1.394,-0.141 -3.07,-0.891 -5.031,-2.262 -2.195,-1.535 -3.367,-3.168 -3.52,-4.894 -0.086,-1.262 0.239,-2.653 0.981,-4.176 l -8.969,-6.278 c -1.98,3.246 -2.898,6.411 -2.758,9.489 0.266,4.851 3.387,9.371 9.367,13.554 3.891,2.727 7.887,4.375 11.993,4.95 4.097,0.57 7.648,-1.286 10.648,-5.567 l 11.418,-16.305 c 0.793,-1.128 1.77,-2.484 2.941,-4.062 0.918,-1.172 1.68,-1.871 2.289,-2.09 0.61,-0.223 1.317,-0.262 2.126,-0.117 l 0.957,-1.371 -10.11,-7.078 c -0.785,0.519 -1.453,1.058 -2,1.613 -0.551,0.551 -1.14,1.207 -1.769,1.969 -0.309,-2.289 -0.957,-4.512 -1.946,-6.66 -1.195,-2.551 -3.054,-4.711 -5.574,-6.477 -3.215,-2.254 -6.519,-3.207 -9.906,-2.855 -3.383,0.386 -6.25,2.261 -8.61,5.632 -3.058,4.371 -3.593,8.711 -1.593,13.028 1.105,2.359 3.289,5.023 6.554,7.992 l 2.891,2.605" /><path
         id="path104"
         style="fill:#1f4fa2;fill-opacity:1;fill-rule:nonzero;stroke:none"
         d="m 290.68,766.113 c 3.586,-0.906 6.527,-3.824 8.824,-8.758 l 12.351,-26.48 -10.535,-4.91 -11.156,23.918 c -0.961,2.066 -1.98,3.527 -3.047,4.375 -1.957,1.551 -4.351,1.664 -7.187,0.34 -3.492,-1.625 -5.192,-4.223 -5.11,-7.786 0.055,-1.878 0.649,-4.031 1.782,-6.46 l 9.925,-21.286 -10.246,-4.777 -18.304,39.25 9.921,4.629 2.676,-5.738 c 0.379,2.636 0.953,4.675 1.715,6.117 1.375,2.574 3.688,4.617 6.938,6.133 4.062,1.894 7.882,2.371 11.453,1.433" /><path
         id="path106"
         style="fill:#1f4fa2;fill-opacity:1;fill-rule:evenodd;stroke:none"
         d="m 350.223,793.598 7.308,-37.59 11.098,2.156 c 5.68,1.102 9.094,4.676 10.246,10.711 0.629,3.313 0.527,7.09 -0.297,11.336 -1.14,5.863 -2.941,10.176 -5.394,12.941 -2.438,2.801 -6.391,3.664 -11.86,2.602 z m 20.339,13.039 c 4.297,-0.543 8.04,-2.344 11.227,-5.403 2.563,-2.476 4.535,-5.308 5.91,-8.504 1.379,-3.191 2.363,-6.3 2.949,-9.32 1.489,-7.66 1.215,-14.445 -0.828,-20.355 -2.777,-7.977 -8.511,-12.809 -17.215,-14.5 l -24.812,-4.821 -11.195,57.598 24.808,4.824 c 3.582,0.641 6.633,0.801 9.156,0.481" /><path
         id="path108"
         style="fill:#1f4fa2;fill-opacity:1;fill-rule:evenodd;stroke:none"
         d="m 434.223,766.176 c 1.695,2.422 2.465,5.808 2.312,10.16 -0.152,4.348 -1.156,7.66 -3.015,9.93 -1.86,2.3 -4.446,3.39 -7.762,3.277 -3.317,-0.117 -5.836,-1.387 -7.555,-3.809 -1.695,-2.398 -2.469,-5.773 -2.316,-10.121 0.152,-4.347 1.156,-7.672 3.015,-9.972 1.887,-2.297 4.489,-3.387 7.805,-3.27 3.316,0.113 5.82,1.383 7.516,3.805 z m 9.289,-5.969 c -3.5,-4.637 -8.985,-7.082 -16.434,-7.344 -7.453,-0.261 -13.086,1.801 -16.906,6.18 -3.817,4.41 -5.84,9.793 -6.059,16.16 -0.222,6.258 1.422,11.746 4.922,16.465 3.5,4.715 8.973,7.203 16.426,7.465 7.453,0.258 13.09,-1.844 16.91,-6.301 3.824,-4.461 5.84,-9.824 6.059,-16.082 0.222,-6.363 -1.418,-11.879 -4.918,-16.543" /><path
         id="path110"
         style="fill:#1f4fa2;fill-opacity:1;fill-rule:evenodd;stroke:none"
         d="m 487.031,763.113 c 2.094,1.742 3.446,4.778 4.059,9.117 0.57,4.071 0.137,7.293 -1.297,9.668 -1.41,2.372 -3.563,3.758 -6.449,4.164 -3.942,0.555 -6.922,-0.917 -8.942,-4.41 -1.066,-1.863 -1.8,-4.238 -2.207,-7.129 -0.351,-2.496 -0.242,-4.777 0.325,-6.839 1.011,-3.84 3.492,-6.039 7.433,-6.59 2.629,-0.371 4.988,0.301 7.078,2.019 z m 0.512,31.364 c 2.57,-1.516 4.488,-3.903 5.746,-7.161 l 0.867,6.192 10.922,-1.535 -5.73,-40.762 c -0.778,-5.543 -2.301,-9.594 -4.559,-12.141 -3.891,-4.386 -10.379,-5.937 -19.469,-4.66 -5.492,0.77 -9.824,2.477 -12.988,5.121 -3.168,2.645 -4.633,6.129 -4.398,10.465 l 12.222,-1.715 c 0.129,-1.359 0.508,-2.379 1.137,-3.058 1.062,-1.192 3.027,-1.993 5.895,-2.395 4.046,-0.566 6.945,0.406 8.691,2.922 1.137,1.605 1.992,4.461 2.566,8.559 l 0.391,2.761 c -1.336,-1.687 -2.688,-2.906 -4.051,-3.652 -2.476,-1.395 -5.5,-1.84 -9.07,-1.336 -5.52,0.773 -9.664,3.328 -12.434,7.656 -2.738,4.352 -3.64,9.836 -2.711,16.461 0.899,6.387 3.239,11.524 7.032,15.41 3.793,3.918 8.605,5.465 14.437,4.645 2.156,-0.301 3.988,-0.895 5.504,-1.777 z m 8.742,7.574 c -2.605,-1.563 -5.933,-2.059 -9.98,-1.492 -4.047,0.57 -7.11,1.964 -9.18,4.187 -2.07,2.246 -2.996,5.402 -2.77,9.473 l 5.321,-0.75 c 0.027,-2.469 1.058,-4.289 3.094,-5.457 1.136,-0.672 2.601,-1.129 4.39,-1.383 1.785,-0.25 3.317,-0.211 4.598,0.121 2.277,0.562 3.765,2.027 4.476,4.395 l 5.321,-0.75 c -0.907,-3.973 -2.664,-6.754 -5.27,-8.344" /><path
         id="path112"
         style="fill:#1f4fa2;fill-opacity:1;fill-rule:nonzero;stroke:none"
         d="m 546.102,782.805 c 0.152,-0.043 0.468,-0.141 0.949,-0.297 l -3.008,-11.227 c -0.672,0.262 -1.273,0.477 -1.805,0.649 -0.531,0.168 -0.965,0.297 -1.297,0.386 -4.41,1.184 -7.753,0.539 -10.039,-1.925 -1.277,-1.387 -2.363,-3.762 -3.265,-7.118 l -5.367,-20.035 -11.036,2.957 11.231,41.91 10.457,-2.8 -1.957,-7.305 c 2.441,2.34 4.426,3.855 5.957,4.543 2.508,1.168 5.406,1.312 8.687,0.434 0.207,-0.055 0.368,-0.114 0.493,-0.172" /><path
         id="path114"
         style="fill:#1f4fa2;fill-opacity:1;fill-rule:evenodd;stroke:none"
         d="m 573.984,747.758 c -0.832,-0.153 -1.648,-0.223 -2.445,-0.215 -0.762,0.023 -1.781,0.16 -3.051,0.418 l -2.543,0.512 c -2.371,0.5 -4.152,0.66 -5.34,0.48 -2.015,-0.301 -3.425,-1.461 -4.242,-3.48 -0.726,-1.797 -0.761,-3.297 -0.105,-4.508 0.691,-1.195 1.75,-2.082 3.18,-2.656 2.261,-0.914 4.609,-1.09 7.039,-0.528 2.457,0.551 4.433,2.574 5.929,6.063 z m -4.398,7.488 c 2.043,-0.539 3.555,-0.797 4.543,-0.766 1.758,0.036 2.91,0.731 3.461,2.082 0.664,1.649 0.543,3.012 -0.363,4.098 -0.879,1.098 -2.418,2.09 -4.633,2.988 -2.485,1.004 -4.492,1.098 -6.028,0.286 -1.101,-0.614 -2.089,-1.645 -2.964,-3.094 l -10.149,4.101 c 1.641,3.426 3.793,5.922 6.457,7.481 4.211,2.418 9.699,2.262 16.465,-0.473 4.406,-1.777 7.965,-4.234 10.68,-7.359 2.715,-3.133 3.09,-7.121 1.136,-11.969 l -7.457,-18.453 c -0.519,-1.281 -1.121,-2.84 -1.804,-4.68 -0.485,-1.41 -0.653,-2.429 -0.508,-3.058 0.144,-0.633 0.5,-1.246 1.058,-1.844 l -0.625,-1.551 -11.445,4.621 c 0.008,0.942 0.098,1.793 0.262,2.559 0.164,0.762 0.394,1.613 0.687,2.555 -2.086,-0.989 -4.3,-1.653 -6.644,-1.997 -2.789,-0.386 -5.61,-0.003 -8.469,1.149 -3.641,1.473 -6.234,3.723 -7.789,6.754 -1.516,3.043 -1.504,6.472 0.035,10.289 2,4.945 5.352,7.754 10.063,8.426 2.578,0.363 6,-0.02 10.273,-1.141 l 3.758,-1.004" /><path
         id="path116"
         style="fill:#1f4fa2;fill-opacity:1;fill-rule:nonzero;stroke:none"
         d="m 658.102,725.914 c 1.152,-1.633 1.855,-3.644 2.113,-6.023 0.199,-1.934 -0.121,-3.942 -0.965,-6.02 -0.574,-1.371 -1.629,-3.234 -3.156,-5.59 l -14.961,-22.894 -9.75,6.332 15.047,23.168 c 0.894,1.379 1.41,2.66 1.543,3.84 0.25,2.242 -0.754,4.097 -3.028,5.574 -2.625,1.703 -5.144,1.789 -7.566,0.261 -1.262,-0.828 -2.422,-2.05 -3.477,-3.675 l -14.07,-21.668 -9.582,6.222 14.07,21.668 c 1.403,2.161 2.196,3.871 2.391,5.141 0.34,2.277 -0.66,4.176 -2.996,5.695 -2.715,1.762 -5.11,2.067 -7.188,0.918 -1.164,-0.668 -2.386,-1.996 -3.672,-3.976 l -14.222,-21.903 -9.653,6.27 23.594,36.32 9.246,-6.004 -3.449,-5.308 c 2.41,1.125 4.395,1.75 5.965,1.871 2.769,0.226 5.625,-0.617 8.562,-2.524 2.786,-1.804 4.633,-3.879 5.555,-6.214 0.641,-2.032 0.742,-4.172 0.297,-6.415 2.633,1.329 5.199,1.895 7.695,1.696 2.61,-0.27 5.117,-1.188 7.52,-2.75 1.605,-1.039 2.98,-2.375 4.137,-4.012" /><path
         id="path118"
         style="fill:#1f4fa2;fill-opacity:1;fill-rule:evenodd;stroke:none"
         d="m 682.691,674.965 c -0.828,0.16 -1.617,0.387 -2.359,0.68 -0.703,0.293 -1.605,0.789 -2.699,1.48 l -2.188,1.391 c -2.039,1.316 -3.644,2.105 -4.816,2.367 -1.984,0.437 -3.723,-0.141 -5.207,-1.731 -1.32,-1.418 -1.891,-2.808 -1.715,-4.172 0.219,-1.363 0.891,-2.57 2.016,-3.621 1.785,-1.664 3.914,-2.671 6.386,-3.015 2.493,-0.364 5.059,0.812 7.707,3.535 z m -1.421,8.57 c 1.71,-1.234 3.035,-2.015 3.968,-2.34 1.653,-0.601 2.977,-0.367 3.973,0.703 1.211,1.301 1.59,2.618 1.129,3.954 -0.426,1.339 -1.508,2.82 -3.254,4.449 -1.961,1.828 -3.801,2.637 -5.52,2.426 -1.254,-0.176 -2.546,-0.782 -3.878,-1.825 l -8.008,7.465 c 2.765,2.613 5.668,4.172 8.711,4.672 4.797,0.75 9.867,-1.363 15.207,-6.344 3.468,-3.238 5.914,-6.804 7.328,-10.699 1.414,-3.894 0.336,-7.754 -3.231,-11.578 l -13.574,-14.555 c -0.941,-1.011 -2.062,-2.25 -3.363,-3.722 -0.953,-1.141 -1.477,-2.036 -1.567,-2.676 -0.089,-0.641 0.02,-1.34 0.325,-2.102 l -1.137,-1.222 -9.027,8.418 c 0.343,0.875 0.734,1.64 1.16,2.293 0.426,0.652 0.949,1.367 1.558,2.14 -2.3,-0.176 -4.609,-0.004 -6.918,0.52 -2.742,0.636 -5.242,2.004 -7.496,4.101 -2.871,2.68 -4.488,5.711 -4.851,9.098 -0.325,3.387 0.914,6.586 3.722,9.594 3.637,3.902 7.774,5.32 12.411,4.261 2.539,-0.586 5.597,-2.168 9.183,-4.746 l 3.149,-2.285" /><path
         id="path120"
         style="fill:#1f4fa2;fill-opacity:1;fill-rule:nonzero;stroke:none"
         d="m 722.672,639.797 c 1.121,1.183 1.914,2.527 2.375,4.027 0.558,2.09 -0.008,4.18 -1.692,6.262 -2.406,2.969 -5.527,3.809 -9.359,2.512 -2.035,-0.692 -4.351,-2.09 -6.953,-4.196 -2.473,-2.004 -4.231,-3.902 -5.266,-5.699 -1.957,-3.324 -1.754,-6.441 0.602,-9.348 1.672,-2.062 3.41,-3.074 5.226,-3.039 1.817,0.036 3.684,0.68 5.61,1.926 l 7.289,-9 c -2.848,-1.965 -6.168,-3.051 -9.965,-3.254 -6.094,-0.359 -11.336,2.172 -15.73,7.598 -4.395,5.422 -6.016,10.715 -4.868,15.879 1.145,5.164 4.286,9.824 9.422,13.984 5.797,4.692 11.446,6.926 16.953,6.707 5.504,-0.218 10.27,-2.812 14.293,-7.785 3.422,-4.226 5.274,-8.449 5.547,-12.668 0.289,-4.238 -1.769,-8.551 -6.172,-12.937 l -7.312,9.031" /><path
         id="path122"
         style="fill:#1f4fa2;fill-opacity:1;fill-rule:nonzero;stroke:none"
         d="m 750.055,627.516 6.097,-9.754 -36.797,-22.996 -6.097,9.757 36.797,22.993" /><path
         id="path124"
         style="fill:#ffffff;fill-opacity:1;fill-rule:nonzero;stroke:none"
         d="m 436.18,151.84 c 191.832,64.09 205.418,272.398 203.699,460.277 -19.434,1.641 -40.449,3.91 -61.57,6.363 -79.965,9.282 -127.727,41.043 -142.129,51.793 -14.407,-10.75 -62.164,-42.511 -142.133,-51.793 -21.121,-2.453 -42.133,-4.722 -61.57,-6.363 C 230.758,424.238 244.344,215.93 436.18,151.84" /><path
         id="path126"
         style="fill:none;stroke:#ffffff;stroke-width:18.1189003;stroke-linecap:butt;stroke-linejoin:miter;stroke-miterlimit:3.8636899;stroke-dasharray:none;stroke-opacity:1"
         d="m 436.18,151.84 c 191.832,64.09 205.418,272.398 203.699,460.277 -19.434,1.641 -40.449,3.91 -61.57,6.363 -79.965,9.282 -127.727,41.043 -142.129,51.793 -14.407,-10.75 -62.164,-42.511 -142.133,-51.793 -21.121,-2.453 -42.133,-4.722 -61.57,-6.363 C 230.758,424.238 244.344,215.93 436.18,151.84 Z" /><path
         id="path128"
         style="fill:#ffffff;fill-opacity:1;fill-rule:nonzero;stroke:none"
         d="m 247.387,598.664 c 15.859,1.488 32.523,3.313 49.254,5.258 71.379,8.285 118.164,34.004 139.57,48.316 21.402,-14.312 68.191,-40.031 139.57,-48.316 16.727,-1.945 33.391,-3.77 49.254,-5.258 0.914,-183.43 -16.808,-368.305 -188.824,-428.719 -172.02,60.414 -189.734,245.297 -188.824,428.719" /><path
         id="path130"
         style="fill:none;stroke:#ed1c24;stroke-width:8.03888035;stroke-linecap:butt;stroke-linejoin:miter;stroke-miterlimit:3.8636899;stroke-dasharray:none;stroke-opacity:1"
         d="m 247.387,598.664 c 15.859,1.488 32.523,3.313 49.254,5.258 71.379,8.285 118.164,34.004 139.57,48.316 21.402,-14.312 68.191,-40.031 139.57,-48.316 16.727,-1.945 33.391,-3.77 49.254,-5.258 0.914,-183.43 -16.808,-368.305 -188.824,-428.719 -172.02,60.414 -189.734,245.297 -188.824,428.719 z" /><path
         id="path132"
         style="fill:#ffffff;fill-opacity:1;fill-rule:nonzero;stroke:none"
         d="m 436.18,179.945 c -158.442,58.762 -180.157,227.582 -180.168,411.567 12.531,1.269 25.418,2.703 38.34,4.203 68.484,7.949 115.976,30.519 141.828,46.453 25.847,-15.934 73.34,-38.504 141.824,-46.453 12.922,-1.5 25.808,-2.934 38.34,-4.203 C 616.332,407.527 594.617,238.707 436.18,179.945" /><g
         id="g134"><g
           clip-path="url(#clipPath140)"
           id="g136"><path
             id="path142"
             style="fill:#1f4fa2;fill-opacity:1;fill-rule:evenodd;stroke:none"
             d="M 592.719,653.988 622.738,632.18 436.164,281.23 v 0 l 156.555,372.758" /></g></g><g
         id="g144"><g
           clip-path="url(#clipPath150)"
           id="g146"><g
             clip-path="url(#clipPath156)"
             id="g152"><path
               id="path158"
               style="fill:#ed1c24;fill-opacity:1;fill-rule:nonzero;stroke:none"
               d="m 559.145,555.457 h 21.7422 v 11.2305 H 559.145 Z" /></g></g></g><g
         id="g160"><g
           clip-path="url(#clipPath166)"
           id="g162"><path
             id="path168"
             style="fill:none;stroke:#ffffff;stroke-width:2.3190999;stroke-linecap:butt;stroke-linejoin:miter;stroke-miterlimit:3.8636899;stroke-dasharray:none;stroke-opacity:1"
             d="M 592.719,653.988 622.738,632.18 436.164,281.23 v 0 z" /><path
             id="path170"
             style="fill:#1f4fa2;fill-opacity:1;fill-rule:evenodd;stroke:none"
             d="m 417.348,698.285 37.566,-0.004 -18.777,-417.051 v 0 l -18.789,417.055" /><path
             id="path172"
             style="fill:none;stroke:#ffffff;stroke-width:2.3190999;stroke-linecap:butt;stroke-linejoin:miter;stroke-miterlimit:3.8636899;stroke-dasharray:none;stroke-opacity:1"
             d="m 417.348,698.285 37.566,-0.004 -18.777,-417.051 v 0 z" /><path
             id="path174"
             style="fill:#1f4fa2;fill-opacity:1;fill-rule:evenodd;stroke:none"
             d="m 463.363,697.855 36.653,-5.804 -63.879,-410.821 v 0 l 27.226,416.625" /><path
             id="path176"
             style="fill:none;stroke:#ffffff;stroke-width:2.3190999;stroke-linecap:butt;stroke-linejoin:miter;stroke-miterlimit:3.8636899;stroke-dasharray:none;stroke-opacity:1"
             d="m 463.363,697.855 36.653,-5.804 -63.879,-410.821 v 0 z" /><path
             id="path178"
             style="fill:#1f4fa2;fill-opacity:1;fill-rule:evenodd;stroke:none"
             d="M 508.559,690.059 543.848,678.59 436.137,281.23 v 0 l 72.422,408.829" /><path
             id="path180"
             style="fill:none;stroke:#ffffff;stroke-width:2.3190999;stroke-linecap:butt;stroke-linejoin:miter;stroke-miterlimit:3.8636899;stroke-dasharray:none;stroke-opacity:1"
             d="M 508.559,690.059 543.848,678.59 436.137,281.23 v 0 z" /><path
             id="path182"
             style="fill:#1f4fa2;fill-opacity:1;fill-rule:evenodd;stroke:none"
             d="M 552.977,675.266 585.734,657.844 436.137,281.23 v 0 l 116.84,394.036" /><path
             id="path184"
             style="fill:none;stroke:#ffffff;stroke-width:2.3190999;stroke-linecap:butt;stroke-linejoin:miter;stroke-miterlimit:3.8636899;stroke-dasharray:none;stroke-opacity:1"
             d="M 552.977,675.266 585.734,657.844 436.137,281.23 v 0 z" /><path
             id="path186"
             style="fill:#1f4fa2;fill-opacity:1;fill-rule:evenodd;stroke:none"
             d="M 630.016,625.867 655.789,599.176 436.137,281.23 v 0 l 193.879,344.637" /><path
             id="path188"
             style="fill:none;stroke:#ffffff;stroke-width:2.3190999;stroke-linecap:butt;stroke-linejoin:miter;stroke-miterlimit:3.8636899;stroke-dasharray:none;stroke-opacity:1"
             d="M 630.016,625.867 655.789,599.176 436.137,281.23 v 0 z" /><path
             id="path190"
             style="fill:#1f4fa2;fill-opacity:1;fill-rule:evenodd;stroke:none"
             d="M 661.93,592.707 683.211,562.312 436.137,281.23 v 0 L 661.93,592.707" /><path
             id="path192"
             style="fill:none;stroke:#ffffff;stroke-width:2.3190999;stroke-linecap:butt;stroke-linejoin:miter;stroke-miterlimit:3.8636899;stroke-dasharray:none;stroke-opacity:1"
             d="M 661.93,592.707 683.211,562.312 436.137,281.23 v 0 z" /><path
             id="path194"
             style="fill:#1f4fa2;fill-opacity:1;fill-rule:evenodd;stroke:none"
             d="M 687.297,555.734 704.141,522.672 436.137,281.23 v 0 l 251.16,274.504" /><path
             id="path196"
             style="fill:none;stroke:#ffffff;stroke-width:2.3190999;stroke-linecap:butt;stroke-linejoin:miter;stroke-miterlimit:3.8636899;stroke-dasharray:none;stroke-opacity:1"
             d="M 687.297,555.734 704.141,522.672 436.137,281.23 v 0 z" /><path
             id="path198"
             style="fill:#1f4fa2;fill-opacity:1;fill-rule:evenodd;stroke:none"
             d="M 707.699,513.398 718.547,477.914 436.137,281.23 v 0 l 271.562,232.168" /><path
             id="path200"
             style="fill:none;stroke:#ffffff;stroke-width:2.3190999;stroke-linecap:butt;stroke-linejoin:miter;stroke-miterlimit:3.8636899;stroke-dasharray:none;stroke-opacity:1"
             d="M 707.699,513.398 718.547,477.914 436.137,281.23 v 0 z" /><path
             id="path202"
             style="fill:#1f4fa2;fill-opacity:1;fill-rule:evenodd;stroke:none"
             d="m 721.008,468.48 4.519,-36.828 -289.39,-150.422 v 0 l 284.871,187.25" /><path
             id="path204"
             style="fill:none;stroke:#ffffff;stroke-width:2.3190999;stroke-linecap:butt;stroke-linejoin:miter;stroke-miterlimit:3.8636899;stroke-dasharray:none;stroke-opacity:1"
             d="m 721.008,468.48 4.519,-36.828 -289.39,-150.422 v 0 z" /><path
             id="path206"
             style="fill:#1f4fa2;fill-opacity:1;fill-rule:evenodd;stroke:none"
             d="m 726.43,422.816 -1.293,-37.086 -289,-104.5 v 0 L 726.43,422.816" /><path
             id="path208"
             style="fill:none;stroke:#ffffff;stroke-width:2.3190999;stroke-linecap:butt;stroke-linejoin:miter;stroke-miterlimit:3.8636899;stroke-dasharray:none;stroke-opacity:1"
             d="m 726.43,422.816 -1.293,-37.086 -289,-104.5 v 0 z" /><path
             id="path210"
             style="fill:#1f4fa2;fill-opacity:1;fill-rule:evenodd;stroke:none"
             d="M 724.566,377.027 717.484,340.602 436.137,281.23 v 0 l 288.429,95.797" /><path
             id="path212"
             style="fill:none;stroke:#ffffff;stroke-width:2.3190999;stroke-linecap:butt;stroke-linejoin:miter;stroke-miterlimit:3.8636899;stroke-dasharray:none;stroke-opacity:1"
             d="M 724.566,377.027 717.484,340.602 436.137,281.23 v 0 z" /><path
             id="path214"
             style="fill:#1f4fa2;fill-opacity:1;fill-rule:evenodd;stroke:none"
             d="M 715.727,332.914 703.645,301.102 436.137,281.23 v 0 l 279.59,51.684" /><path
             id="path216"
             style="fill:none;stroke:#ffffff;stroke-width:2.3190999;stroke-linecap:butt;stroke-linejoin:miter;stroke-miterlimit:3.8636899;stroke-dasharray:none;stroke-opacity:1"
             d="M 715.727,332.914 703.645,301.102 436.137,281.23 v 0 z" /><path
             id="path218"
             style="fill:#1f4fa2;fill-opacity:1;fill-rule:evenodd;stroke:none"
             d="m 699.641,292.891 -17.989,-35.727 -245.515,24.734 v 0 l 263.504,10.993" /><path
             id="path220"
             style="fill:none;stroke:#ffffff;stroke-width:2.3190999;stroke-linecap:butt;stroke-linejoin:miter;stroke-miterlimit:3.8636899;stroke-dasharray:none;stroke-opacity:1"
             d="m 699.641,292.891 -17.989,-35.727 -245.515,24.734 v 0 z" /><path
             id="path222"
             style="fill:#1f4fa2;fill-opacity:1;fill-rule:evenodd;stroke:none"
             d="m 408.895,697.855 -36.649,-5.804 63.879,-410.821 v 0 l -27.23,416.625" /><path
             id="path224"
             style="fill:none;stroke:#ffffff;stroke-width:2.3190999;stroke-linecap:butt;stroke-linejoin:miter;stroke-miterlimit:3.8636899;stroke-dasharray:none;stroke-opacity:1"
             d="m 408.895,697.855 -36.649,-5.804 63.879,-410.821 v 0 z" /><path
             id="path226"
             style="fill:#1f4fa2;fill-opacity:1;fill-rule:evenodd;stroke:none"
             d="M 363.703,690.059 328.414,678.59 436.125,281.23 v 0 l -72.422,408.829" /><path
             id="path228"
             style="fill:none;stroke:#ffffff;stroke-width:2.3190999;stroke-linecap:butt;stroke-linejoin:miter;stroke-miterlimit:3.8636899;stroke-dasharray:none;stroke-opacity:1"
             d="M 363.703,690.059 328.414,678.59 436.125,281.23 v 0 z" /><path
             id="path230"
             style="fill:#1f4fa2;fill-opacity:1;fill-rule:evenodd;stroke:none"
             d="M 319.285,675.266 286.523,657.844 436.125,281.23 v 0 l -116.84,394.036" /><path
             id="path232"
             style="fill:none;stroke:#ffffff;stroke-width:2.3190999;stroke-linecap:butt;stroke-linejoin:miter;stroke-miterlimit:3.8636899;stroke-dasharray:none;stroke-opacity:1"
             d="M 319.285,675.266 286.523,657.844 436.125,281.23 v 0 z" /><path
             id="path234"
             style="fill:#1f4fa2;fill-opacity:1;fill-rule:evenodd;stroke:none"
             d="M 279.57,653.988 249.551,632.18 436.125,281.23 v 0 L 279.57,653.988" /></g></g><g
         id="g236"><g
           clip-path="url(#clipPath242)"
           id="g238"><g
             clip-path="url(#clipPath248)"
             id="g244"><path
               id="path250"
               style="fill:#ed1c24;fill-opacity:1;fill-rule:nonzero;stroke:none"
               d="m 292.23,555.738 h 20.3594 v 10.3008 H 292.23 Z" /></g></g></g><g
         id="g252"><g
           clip-path="url(#clipPath258)"
           id="g254"><path
             id="path260"
             style="fill:none;stroke:#ffffff;stroke-width:2.3190999;stroke-linecap:butt;stroke-linejoin:miter;stroke-miterlimit:3.8636899;stroke-dasharray:none;stroke-opacity:1"
             d="M 279.57,653.988 249.551,632.18 436.125,281.23 v 0 z" /><path
             id="path262"
             style="fill:#1f4fa2;fill-opacity:1;fill-rule:evenodd;stroke:none"
             d="M 242.246,625.867 216.473,599.176 436.125,281.23 v 0 L 242.246,625.867" /><path
             id="path264"
             style="fill:none;stroke:#ffffff;stroke-width:2.3190999;stroke-linecap:butt;stroke-linejoin:miter;stroke-miterlimit:3.8636899;stroke-dasharray:none;stroke-opacity:1"
             d="M 242.246,625.867 216.473,599.176 436.125,281.23 v 0 z" /><path
             id="path266"
             style="fill:#1f4fa2;fill-opacity:1;fill-rule:evenodd;stroke:none"
             d="M 210.332,592.707 189.051,562.312 436.125,281.23 v 0 L 210.332,592.707" /><path
             id="path268"
             style="fill:none;stroke:#ffffff;stroke-width:2.3190999;stroke-linecap:butt;stroke-linejoin:miter;stroke-miterlimit:3.8636899;stroke-dasharray:none;stroke-opacity:1"
             d="M 210.332,592.707 189.051,562.312 436.125,281.23 v 0 z" /><path
             id="path270"
             style="fill:#1f4fa2;fill-opacity:1;fill-rule:evenodd;stroke:none"
             d="M 184.965,555.734 168.117,522.672 436.125,281.23 v 0 l -251.16,274.504" /><path
             id="path272"
             style="fill:none;stroke:#ffffff;stroke-width:2.3190999;stroke-linecap:butt;stroke-linejoin:miter;stroke-miterlimit:3.8636899;stroke-dasharray:none;stroke-opacity:1"
             d="M 184.965,555.734 168.117,522.672 436.125,281.23 v 0 z" /><path
             id="path274"
             style="fill:#1f4fa2;fill-opacity:1;fill-rule:evenodd;stroke:none"
             d="M 164.562,513.398 153.715,477.914 436.125,281.23 v 0 L 164.562,513.398" /><path
             id="path276"
             style="fill:none;stroke:#ffffff;stroke-width:2.3190999;stroke-linecap:butt;stroke-linejoin:miter;stroke-miterlimit:3.8636899;stroke-dasharray:none;stroke-opacity:1"
             d="M 164.562,513.398 153.715,477.914 436.125,281.23 v 0 z" /><path
             id="path278"
             style="fill:#1f4fa2;fill-opacity:1;fill-rule:evenodd;stroke:none"
             d="M 151.254,468.48 146.73,431.652 436.125,281.23 v 0 L 151.254,468.48" /><path
             id="path280"
             style="fill:none;stroke:#ffffff;stroke-width:2.3190999;stroke-linecap:butt;stroke-linejoin:miter;stroke-miterlimit:3.8636899;stroke-dasharray:none;stroke-opacity:1"
             d="M 151.254,468.48 146.73,431.652 436.125,281.23 v 0 z" /><path
             id="path282"
             style="fill:#1f4fa2;fill-opacity:1;fill-rule:evenodd;stroke:none"
             d="m 145.828,422.816 1.297,-37.086 289,-104.5 v 0 L 145.828,422.816" /><path
             id="path284"
             style="fill:none;stroke:#ffffff;stroke-width:2.3190999;stroke-linecap:butt;stroke-linejoin:miter;stroke-miterlimit:3.8636899;stroke-dasharray:none;stroke-opacity:1"
             d="m 145.828,422.816 1.297,-37.086 289,-104.5 v 0 z" /><path
             id="path286"
             style="fill:#1f4fa2;fill-opacity:1;fill-rule:evenodd;stroke:none"
             d="m 147.695,377.027 7.078,-36.425 281.352,-59.372 v 0 l -288.43,95.797" /><path
             id="path288"
             style="fill:none;stroke:#ffffff;stroke-width:2.3190999;stroke-linecap:butt;stroke-linejoin:miter;stroke-miterlimit:3.8636899;stroke-dasharray:none;stroke-opacity:1"
             d="m 147.695,377.027 7.078,-36.425 281.352,-59.372 v 0 z" /><path
             id="path290"
             style="fill:#1f4fa2;fill-opacity:1;fill-rule:evenodd;stroke:none"
             d="m 156.535,332.914 12.082,-31.812 267.508,-19.872 v 0 l -279.59,51.684" /><path
             id="path292"
             style="fill:none;stroke:#ffffff;stroke-width:2.3190999;stroke-linecap:butt;stroke-linejoin:miter;stroke-miterlimit:3.8636899;stroke-dasharray:none;stroke-opacity:1"
             d="m 156.535,332.914 12.082,-31.812 267.508,-19.872 v 0 z" /><path
             id="path294"
             style="fill:#1f4fa2;fill-opacity:1;fill-rule:evenodd;stroke:none"
             d="m 172.621,292.891 17.988,-35.727 245.516,24.734 v 0 l -263.504,10.993" /><path
             id="path296"
             style="fill:none;stroke:#ffffff;stroke-width:2.3190999;stroke-linecap:butt;stroke-linejoin:miter;stroke-miterlimit:3.8636899;stroke-dasharray:none;stroke-opacity:1"
             d="m 172.621,292.891 17.988,-35.727 245.516,24.734 v 0 z" /><path
             id="path298"
             style="fill:#1f4fa2;fill-opacity:1;fill-rule:nonzero;stroke:none"
             d="m 556.32,275.824 c -26.867,-43.09 -64.961,-75.437 -120.082,-95.879 -55.062,20.422 -93.586,52.852 -120.449,95.879 H 556.32" /><path
             id="path300"
             style="fill:none;stroke:#ffffff;stroke-width:4.17430019;stroke-linecap:butt;stroke-linejoin:miter;stroke-miterlimit:3.8636899;stroke-dasharray:none;stroke-opacity:1"
             d="m 556.32,275.824 c -26.867,-43.09 -64.961,-75.437 -120.082,-95.879 -55.062,20.422 -93.586,52.852 -120.449,95.879 z" /><path
             id="path302"
             style="fill:#ffffff;fill-opacity:1;fill-rule:nonzero;stroke:none"
             d="m 343.371,279.293 c 0,50.809 41.492,93.09 92.738,93.09 51.246,0 92.793,-42.281 92.793,-93.09 H 343.371" /><g
             transform="scale(1.00425,0.995748)"
             id="g304"><path
               id="path306"
               style="fill:none;stroke:#ffffff;stroke-width:4.38768005;stroke-linecap:butt;stroke-linejoin:miter;stroke-miterlimit:3.8636899;stroke-dasharray:none;stroke-opacity:1"
               d="m 341.917,280.486 c 0,51.025 41.317,93.487 92.346,93.487 51.029,0 92.4,-42.462 92.4,-93.487 z" /></g></g></g><path
         id="path308"
         style="fill:none;stroke:#ffffff;stroke-width:1.41773999;stroke-linecap:butt;stroke-linejoin:miter;stroke-miterlimit:3.86370993;stroke-dasharray:none;stroke-opacity:1"
         d="m 436.18,179.945 c -158.442,58.762 -180.157,227.582 -180.168,411.567 12.531,1.269 25.418,2.703 38.34,4.203 68.484,7.949 115.976,30.519 141.828,46.453 25.847,-15.934 73.34,-38.504 141.824,-46.453 12.922,-1.5 25.808,-2.934 38.34,-4.203 C 616.332,407.527 594.617,238.707 436.18,179.945 Z" /><path
         id="path310"
         style="fill:none;stroke:#1f4fa2;stroke-width:8.03888035;stroke-linecap:butt;stroke-linejoin:miter;stroke-miterlimit:3.8636899;stroke-dasharray:none;stroke-opacity:1"
         d="m 436.18,153.906 c 190.304,63.578 203.781,270.227 202.074,456.606 -19.277,1.629 -40.125,3.879 -61.078,6.312 -79.332,9.207 -126.707,40.719 -140.996,51.379 -14.289,-10.66 -61.672,-42.172 -141,-51.379 -20.953,-2.433 -41.797,-4.683 -61.078,-6.312 -1.707,-186.379 11.773,-393.028 202.078,-456.606 z" /><path
         id="path312"
         style="fill:#ed1c24;fill-opacity:1;fill-rule:nonzero;stroke:none"
         d="m 346.414,280.625 c 0,48.09 40.754,89.168 89.207,89.469 l 0.531,0.004 h 0.301 l 0.297,-0.004 c 48.422,-0.336 89.191,-41.403 89.191,-89.469 -0.011,-0.785 0,-1.895 0,-2.68 H 346.414 c 0,0.785 0.008,1.895 0.031,2.68 h -0.031" /><path
         id="path314"
         style="fill:#1f4fa2;fill-opacity:1;fill-rule:nonzero;stroke:none"
         d="m 286.129,570.082 25.273,-0.648 7.309,-15.789 -23.039,-0.833 -9.543,17.27" /><path
         id="path316"
         style="fill:none;stroke:#1f4fa2;stroke-width:0.424624;stroke-linecap:butt;stroke-linejoin:miter;stroke-miterlimit:3.8636899;stroke-dasharray:none;stroke-opacity:1"
         d="m 286.129,570.082 25.273,-0.648 7.309,-15.789 -23.039,-0.833 z" /><path
         id="path318"
         style="fill:#1f4fa2;fill-opacity:1;fill-rule:nonzero;stroke:none"
         d="m 577.387,573.52 -17.617,-3.223 -5.129,-13.59 23.55,-3.961 10.914,21.797 -11.718,-1.023" /><path
         id="path320"
         style="fill:none;stroke:#1f4fa2;stroke-width:0.424624;stroke-linecap:butt;stroke-linejoin:miter;stroke-miterlimit:3.8636899;stroke-dasharray:none;stroke-opacity:1"
         d="m 577.387,573.52 -17.617,-3.223 -5.129,-13.59 23.55,-3.961 10.914,21.797 z" /><path
         id="path322"
         style="fill:#ffffff;fill-opacity:1;fill-rule:nonzero;stroke:none"
         d="m 278.105,479.93 c 0,6 0,58.047 0,58.047 v 11.25 c 0,0 -1.554,14.933 14.934,14.933 17.664,0 19.531,-11.285 9.941,-11.285 l -10.507,-0.672 c 0,0 -5.371,-0.156 -5.371,-9.406 0,-11.106 0,-62.867 0,-62.867 h -8.997" /><g
         transform="scale(0.999951,1.00005)"
         id="g324"><path
           id="path326"
           style="fill:none;stroke:#ffffff;stroke-width:9.81719971;stroke-linecap:butt;stroke-linejoin:miter;stroke-miterlimit:3.8636899;stroke-dasharray:none;stroke-opacity:1"
           d="m 278.119,479.906 c 0,6 0,58.044 0,58.044 v 11.25 c 0,0 -1.555,14.933 14.934,14.933 17.665,0 19.533,-11.285 9.942,-11.285 l -10.508,-0.672 c 0,0 -5.371,-0.156 -5.371,-9.406 0,-11.105 0,-62.864 0,-62.864 z" /></g><path
         id="path328"
         style="fill:#ed1c24;fill-opacity:1;fill-rule:nonzero;stroke:none"
         d="m 278.105,480.309 c 0,6 0,58.046 0,58.046 v 11.247 c 0,0 -1.71,14.933 14.934,14.933 17.664,0 19.586,-11.281 9.941,-11.281 l -10.507,-0.672 c 0,0 -5.371,-0.156 -5.371,-9.406 0,-11.106 0,-62.867 0,-62.867 h -8.997" /><path
         id="path330"
         style="fill:#ffffff;fill-opacity:1;fill-rule:nonzero;stroke:none"
         d="m 593.598,479.93 c 0,6 0,58.047 0,58.047 v 11.25 c 0,0 1.554,14.933 -14.938,14.933 -17.668,0 -19.637,-11.285 -9.941,-11.285 l 10.508,-0.672 c 0,0 5.371,-0.156 5.371,-9.406 0,-11.106 0,-62.867 0,-62.867 h 9" /><g
         transform="scale(-1.00005,0.999954)"
         id="g332"><path
           id="path334"
           style="fill:none;stroke:#ffffff;stroke-width:9.81812954;stroke-linecap:butt;stroke-linejoin:miter;stroke-miterlimit:3.8636899;stroke-dasharray:none;stroke-opacity:1"
           d="m -593.57,479.952 c 0,6 0,58.049 0,58.049 v 11.251 c 0,0 -1.555,14.934 14.936,14.934 17.667,0 19.636,-11.286 9.941,-11.286 l -10.507,-0.672 c 0,0 -5.371,-0.156 -5.371,-9.406 0,-11.106 0,-62.87 0,-62.87 z" /></g><path
         id="path336"
         style="fill:#ed1c24;fill-opacity:1;fill-rule:nonzero;stroke:none"
         d="m 593.598,480.309 c 0,6 0,58.046 0,58.046 v 11.247 c 0,0 1.711,14.933 -14.938,14.933 -17.668,0 -19.598,-11.281 -9.941,-11.281 l 10.508,-0.672 c 0,0 5.371,-0.156 5.371,-9.406 0,-11.106 0,-62.867 0,-62.867 h 9" /><path
         id="path338"
         style="fill:#ffffff;fill-opacity:1;fill-rule:nonzero;stroke:none"
         d="m 296.66,544.824 h 278.938 c 5.125,0 9.281,-4.051 9.281,-9.047 v -76.89 c 0,-4.996 -4.156,-9.047 -9.281,-9.047 H 296.66 c -5.125,0 -9.277,4.051 -9.277,9.047 v 76.89 c 0,4.996 4.152,9.047 9.277,9.047" /><path
         id="path340"
         style="fill:#ed1c24;fill-opacity:1;fill-rule:nonzero;stroke:none"
         d="m 294.035,456.09 h 284.188 v 82.4844 H 294.035 Z" /><path
         id="path342"
         style="fill:none;stroke:#ed1c24;stroke-width:0.424624;stroke-linecap:butt;stroke-linejoin:miter;stroke-miterlimit:3.8636899;stroke-dasharray:none;stroke-opacity:1"
         d="m 294.035,456.09 h 284.188 v 82.4844 H 294.035 Z" /><path
         id="path344"
         style="fill:#ffffff;fill-opacity:1;fill-rule:evenodd;stroke:none"
         d="m 324.172,493.695 h 11.418 c 2.281,0 6.988,-1.781 6.988,-6.633 0,-4.281 -2.64,-7.417 -8.203,-7.417 h -10.203 z m 0,19.547 h 9.633 c 3.281,0 7.133,-1.355 7.133,-5.562 0,-3.782 -2.997,-6.992 -7.278,-6.992 h -9.488 z m -10.199,-40.59 h 23.398 c 9.129,0 15.41,4.707 15.41,11.84 0,7.633 -3.996,11.699 -10.273,12.699 v 0.141 c 5.703,1.57 8.633,5.852 8.633,11.559 0,7.988 -6.207,11.343 -12.344,11.343 h -24.824 v -47.582" /><path
         id="path346"
         style="fill:#ffffff;fill-opacity:1;fill-rule:evenodd;stroke:none"
         d="m 362.164,472.652 h 9.988 v 35.453 h -9.988 z m -0.144,41.446 h 10.203 v 6.562 H 362.02 v -6.562" /><path
         id="path348"
         style="fill:#ffffff;fill-opacity:1;fill-rule:nonzero;stroke:none"
         d="m 383.82,472.652 h 9.98828 v 47.582 H 383.82 Z" /><path
         id="path350"
         style="fill:#ffffff;fill-opacity:1;fill-rule:evenodd;stroke:none"
         d="m 405.477,472.652 h 9.988 v 47.582 h -9.988 z m 10.632,19.832 14.121,-19.832 h 10.704 l -14.84,19.832 12.769,15.621 h -11.199 l -11.555,-15.621" /><path
         id="path352"
         style="fill:#ffffff;fill-opacity:1;fill-rule:evenodd;stroke:none"
         d="m 477.703,480.641 c -3.781,-1.211 -7.633,-2.282 -11.699,-2.282 -6.418,0 -11.34,3.711 -11.34,10.344 v 1.141 h 25.68 v 2.781 c 0,11.484 -7.633,16.336 -17.262,16.336 -12.344,0 -18.406,-7.773 -18.406,-18.617 0,-10.844 7.133,-18.547 19.617,-18.547 4.922,0 8.703,0.496 12.484,1.355 z m -23.039,13.984 c 0.356,4.637 3.281,8.273 8.418,8.273 5.492,0 7.773,-3.21 7.773,-8.273 h -16.191" /><path
         id="path354"
         style="fill:#ffffff;fill-opacity:1;fill-rule:nonzero;stroke:none"
         d="m 498.773,508.105 h -9.984 v -35.453 h 9.984 v 13.696 c 0,10.984 3.426,14.625 10.133,14.625 3.852,0 7.274,-2.071 7.274,-5.782 v -22.539 h 9.988 v 24.825 c 0,8.703 -6.492,11.484 -13.984,11.484 -5.918,0 -10.625,-1.566 -13.266,-6.848 l -0.145,0.141 v 5.851" /><path
         id="path356"
         style="fill:#ffffff;fill-opacity:1;fill-rule:nonzero;stroke:none"
         d="m 548.953,508.105 v 8.489 l -9.988,-2.356 v -6.133 h -4.996 v -6.988 h 4.996 V 481 c 0,-6.992 3.707,-9.203 10.555,-9.203 2.925,0 5.492,0.355 7.992,1.07 l 1.14,7.133 c -1.711,-0.43 -3.496,-0.641 -5.281,-0.641 -3.562,0 -4.418,2.426 -4.418,5.989 v 15.769 h 8.988 v 6.988 h -8.988" /><path
         id="path358"
         style="fill:#ffffff;fill-opacity:1;fill-rule:nonzero;stroke:none"
         d="M 384.457,317.656 V 322 c 2.016,0.09 3.43,0.223 4.234,0.402 1.286,0.286 2.329,0.852 3.137,1.703 0.551,0.583 0.969,1.36 1.254,2.329 0.164,0.582 0.242,1.015 0.242,1.296 h 5.309 v -32.464 h -6.535 v 22.39 h -7.641" /><path
         id="path360"
         style="fill:#ffffff;fill-opacity:1;fill-rule:evenodd;stroke:none"
         d="m 410.98,324.754 c 2.016,2.164 4.629,3.246 7.836,3.246 4.946,0 8.329,-2.188 10.168,-6.559 1.043,-2.48 1.567,-5.742 1.567,-9.785 0,-3.929 -0.5,-7.203 -1.5,-9.832 -1.91,-5 -5.418,-7.5 -10.524,-7.5 -2.433,0 -4.621,0.715 -6.562,2.149 -1.942,1.449 -3.051,3.554 -3.336,6.316 h 6.359 c 0.149,-0.957 0.555,-1.734 1.211,-2.332 0.656,-0.598 1.528,-0.895 2.617,-0.895 2.106,0 3.586,1.165 4.434,3.493 0.465,1.285 0.758,3.156 0.875,5.621 -0.582,-0.731 -1.203,-1.293 -1.859,-1.68 -1.196,-0.715 -2.664,-1.074 -4.411,-1.074 -2.585,0 -4.875,0.887 -6.875,2.664 -2,1.793 -3,4.367 -3,7.726 0,3.477 1,6.29 3,8.442 z m 10.747,-12.875 c 1.449,0.926 2.175,2.531 2.175,4.812 0,1.836 -0.433,3.293 -1.3,4.368 -0.848,1.074 -2.024,1.613 -3.516,1.613 -1.09,0 -2.024,-0.309 -2.797,-0.918 -1.227,-0.957 -1.836,-2.574 -1.836,-4.859 0,-1.926 0.387,-3.375 1.164,-4.344 0.789,-0.957 2,-1.434 3.629,-1.434 0.879,0 1.707,0.254 2.481,0.762" /><path
         id="path362"
         style="fill:#ffffff;fill-opacity:1;fill-rule:evenodd;stroke:none"
         d="m 444.414,300.973 c 0.836,-0.879 1.984,-1.321 3.449,-1.321 1.461,0 2.606,0.442 3.426,1.321 0.836,0.882 1.254,2.121 1.254,3.718 0,1.657 -0.426,2.911 -1.277,3.762 -0.836,0.863 -1.969,1.297 -3.403,1.297 -1.433,0 -2.574,-0.434 -3.425,-1.297 -0.836,-0.851 -1.254,-2.105 -1.254,-3.762 0,-1.597 0.41,-2.836 1.23,-3.718 z m -6.629,8.242 c 0.836,1.476 2.055,2.59 3.653,3.336 -1.571,1.043 -2.59,2.172 -3.071,3.379 -0.461,1.226 -0.695,2.367 -0.695,3.429 0,2.356 0.89,4.364 2.668,6.02 1.777,1.672 4.281,2.512 7.523,2.512 3.239,0 5.746,-0.84 7.524,-2.512 1.777,-1.656 2.664,-3.664 2.664,-6.02 0,-1.062 -0.239,-2.203 -0.719,-3.429 -0.461,-1.207 -1.477,-2.258 -3.043,-3.157 1.598,-0.894 2.797,-2.082 3.606,-3.558 0.804,-1.481 1.21,-3.129 1.21,-4.949 0,-2.731 -1.019,-5.063 -3.046,-6.989 -2.016,-1.91 -4.836,-2.863 -8.465,-2.863 -3.629,0 -6.375,0.953 -8.239,2.863 -1.867,1.926 -2.8,4.258 -2.8,6.989 0,1.82 0.41,3.468 1.23,4.949 z m 7.055,6.539 c 0.73,-0.746 1.738,-1.121 3.023,-1.121 1.301,0 2.301,0.375 3,1.121 0.715,0.746 1.075,1.707 1.075,2.887 0,1.285 -0.36,2.285 -1.075,3 -0.699,0.73 -1.699,1.097 -3,1.097 -1.285,0 -2.293,-0.367 -3.023,-1.097 -0.719,-0.715 -1.074,-1.715 -1.074,-3 0,-1.18 0.355,-2.141 1.074,-2.887" /><path
         id="path364"
         style="fill:#ffffff;fill-opacity:1;fill-rule:evenodd;stroke:none"
         d="m 488.059,302.25 h -3.672 v -6.984 h -6.246 v 6.984 h -12.856 v 5.574 l 11.938,19.707 h 7.164 v -20.285 h 3.672 z m -9.918,4.996 v 14.016 l -8.129,-14.016 h 8.129" /></g></g></svg>